# xmcd CD database file
#
# Track frame offsets:
#	150
#	8601
#	22066
#	31611
#	42720
#	59452
#	68047
#	83192
#	95369
#	109154
#	127081
#	147719
#
# Disc length: 2169 seconds
#
# Revision: 0
# Processed by: cddbd v1.5.1PL2 Copyright (c) Steve Scherf et al.
# Submitted via: CDex 1.51
#
DISCID=a608770c
DTITLE=Gatlin Brothers - Larry Gatlin and The Gatlin Brothers  Sing Their Family Gospel Favorites
DYEAR=2004
DGENRE=Country
TTITLE0=Swing Down Chariot 
TTITLE1=Sweet Hour Of Prayer 
TTITLE2=Love Lifted Me 
TTITLE3=Amazing Grace 
TTITLE4=Do Lord 
TTITLE5=Rock Of Ages 
TTITLE6=It Is Well With My Soul
TTITLE7=I'll Fly Away 
TTITLE8=In The Garden
TTITLE9=Just A Closer Walk With Thee - What A Friend We Have In Jesus
TTITLE10=Peace In The Valley - Whispering Hope
TTITLE11=Victory In Jesus - Power In The Blood 
EXTD=YEAR: 2004
EXTT0=
EXTT1=
EXTT2=
EXTT3=
EXTT4=
EXTT5=
EXTT6=
EXTT7=
EXTT8=
EXTT9=
EXTT10=
EXTT11=
PLAYORDER=
